<?xml version="1.0" encoding="utf-8"?>
<!-- Generator: Adobe Illustrator 16.0.0, SVG Export Plug-In . SVG Version: 6.00 Build 0)  -->
<!DOCTYPE svg PUBLIC "-//W3C//DTD SVG 1.1//EN" "http://www.w3.org/Graphics/SVG/1.1/DTD/svg11.dtd">
<svg xmlns="http://www.w3.org/2000/svg" viewBox="0 0 100 100">
	<defs>
		<filter x="-6.1%" y="-3.9%" width="112.1%" height="113.2%" filterUnits="objectBoundingBox" id="filter-2">
			<feOffset dx="0" dy="4" in="SourceAlpha" result="numbersShadowOffsetOuter2"></feOffset>
			<feGaussianBlur stdDeviation="2" in="numbersShadowOffsetOuter2" result="numbersShadowBlurOuter2"></feGaussianBlur>
			<feColorMatrix values="0 0 0 0 0   0 0 0 0 0   0 0 0 0 0  0 0 0 0.5 0" type="matrix" in="numbersShadowBlurOuter2" result="numbersShadowMatrixOuter2"></feColorMatrix>
			<feMerge>
				<feMergeNode in="numbersShadowMatrixOuter2"></feMergeNode>
				<feMergeNode in="SourceGraphic"></feMergeNode>
			</feMerge>
		</filter>
		<filter id="hightlight-1">
			<feComponentTransfer in="SourceAlpha">
				<feFuncA type="table" tableValues=".5 0"/>
			</feComponentTransfer>
			<feGaussianBlur stdDeviation="2"/>
			<feOffset dx="0" dy="3" result="offsetblur"/>
			<feFlood flood-color="#ccffcc80" result="color"/>
			<feComposite in2="offsetblur" operator="in"/>
			<feComposite in2="SourceAlpha" operator="in"/>
			<feMerge>
				<feMergeNode in="SourceGraphic"/>
				<feMergeNode />
			</feMerge>
		</filter>
		<filter id="hightlight-2">
			<feComponentTransfer in="SourceAlpha">
				<feFuncA type="table" tableValues=".5 0"/>
			</feComponentTransfer>
			<feGaussianBlur stdDeviation="2"/>
			<feOffset dx="0" dy="3" result="offsetblur"/>
			<feFlood flood-color="#292" result="color"/>
			<feComposite in2="offsetblur" operator="in"/>
			<feComposite in2="SourceAlpha" operator="in"/>
			<feMerge>
				<feMergeNode in="SourceGraphic"/>
				<feMergeNode />
			</feMerge>
		</filter>
		<radialGradient id="SVGID_11_" cx="52.1123" cy="46.375" r="40.3104" fx="79.0463" fy="76.3664" gradientUnits="userSpaceOnUse">
			<stop  offset="4.379204e-04" style="stop-color:#297F00"/>
			<stop  offset="0.6048" style="stop-color:#267C03"/>
			<stop  offset="0.612" style="stop-color:#025631"/>
			<stop  offset="1" style="stop-color:#005434"/>
		</radialGradient>
		<linearGradient id="SVGID_1_" gradientUnits="userSpaceOnUse" x1="23.8022" y1="93.5" x2="23.8022" y2="58.8701">
			<stop  offset="4.379204e-04" style="stop-color:#297F00"/>
			<stop  offset="1" style="stop-color:#005434"/>
		</linearGradient>
		<linearGradient id="SVGID_2_" gradientUnits="userSpaceOnUse" x1="76.2227" y1="93.5" x2="76.2227" y2="58.8701">
			<stop  offset="4.379204e-04" style="stop-color:#297F00"/>
			<stop  offset="1" style="stop-color:#005434"/>
		</linearGradient>
		<linearGradient id="SVGID_3_" gradientUnits="userSpaceOnUse" x1="76.1973" y1="41.1294" x2="76.1973" y2="6.5">
			<stop  offset="4.379204e-04" style="stop-color:#297F00"/>
			<stop  offset="1" style="stop-color:#005434"/>
		</linearGradient>
		<linearGradient id="SVGID_4_" gradientUnits="userSpaceOnUse" x1="23.7773" y1="41.1294" x2="23.7773" y2="6.5">
			<stop  offset="4.379204e-04" style="stop-color:#297F00"/>
			<stop  offset="1" style="stop-color:#005434"/>
		</linearGradient>
		<linearGradient id="SVGID_5_" gradientUnits="userSpaceOnUse" x1="49.9868" y1="71.0391" x2="49.9868" y2="93.5">
			<stop  offset="0" style="stop-color:#003F00"/>
			<stop  offset="1" style="stop-color:#009422"/>
		</linearGradient>
		<linearGradient id="SVGID_6_" gradientUnits="userSpaceOnUse" x1="82.2568" y1="68.3379" x2="82.2568" y2="31.6626">
			<stop  offset="0" style="stop-color:#003F00"/>
			<stop  offset="1" style="stop-color:#009422"/>
		</linearGradient>
		<linearGradient id="SVGID_7_" gradientUnits="userSpaceOnUse" x1="17.7183" y1="68.3379" x2="17.7183" y2="31.6626">
			<stop  offset="0" style="stop-color:#003F00"/>
			<stop  offset="1" style="stop-color:#009422"/>
		</linearGradient>
		<linearGradient id="SVGID_8_" gradientUnits="userSpaceOnUse" x1="49.9878" y1="28.9604" x2="49.9878" y2="6.5">
			<stop  offset="0" style="stop-color:#006A18"/>
			<stop  offset="1" style="stop-color:#009447"/>
		</linearGradient>
		<linearGradient id="SVGID_9_" gradientUnits="userSpaceOnUse" x1="50.0005" y1="7" x2="50.0005" y2="94.0005">
			<stop  offset="4.379204e-04" style="stop-color:#D4FFE6;stop-opacity:0.1"/>
			<stop  offset="1" style="stop-color:#003F14"/>
		</linearGradient>
		<radialGradient id="SVGID_10_" cx="49.9873" cy="50" r="30.7179" fx="34.4399" fy="34.9478" gradientUnits="userSpaceOnUse">
			<stop  offset="4.379204e-04" style="stop-color:#297F00"/>
			<stop  offset="0.3892" style="stop-color:#267C03"/>
			<stop  offset="0.411" style="stop-color:#025631"/>
			<stop  offset="1" style="stop-color:#005434"/>
		</radialGradient>
	</defs>
	
	<polygon fill="#269B15" filter="url(#filter-2)" points="93.487,31.662 68.326,6.5 31.648,6.5 6.488,31.662 6.488,68.338 31.648,93.5 68.326,93.5 93.487,68.338 "/>
	<polygon fill="#8AE200" stroke="#CAFFCC" stroke-width="0.25" points="41.117,71.039 19.353,81.204 28.948,58.87 "/>
	<polygon fill="#8AE200" stroke="#CAFFCC" stroke-width="0.25" points="71.078,58.87 81.241,80.635 58.907,71.039 "/>
	<polygon fill="#8AE200" stroke="#CAFFCC" stroke-width="0.25" points="58.87,28.96 80.635,18.796 71.039,41.129 "/>
	<polygon fill="#8AE200" stroke="#CAFFCC" stroke-width="0.25" points="28.922,41.129 18.759,19.365 41.093,28.96 "/>
	<polygon opacity="0.6" fill="url(#SVGID_1_)" points="31.648,93.5 41.117,71.039 28.948,58.87 6.488,68.338 "/>
	<polygon opacity="0.6" filter="url(#hightlight-2)" fill="url(#SVGID_2_)" points="93.538,68.338 71.078,58.87 58.907,71.039 68.376,93.5 "/>
	<polygon opacity="0.4" filter="url(#hightlight-2)" fill="url(#SVGID_3_)" points="68.352,6.5 58.883,28.96 71.052,41.129 93.513,31.662 "/>
	<polygon opacity="0.4" filter="url(#hightlight-2)" fill="url(#SVGID_4_)" points="6.462,31.662 28.922,41.129 41.093,28.96 31.624,6.5 "/>
	<polygon opacity="0.7" filter="url(#hightlight-2)" fill="url(#SVGID_5_)" stroke="#C8FFBB" stroke-width="0.5" points="41.117,71.039 31.648,93.5 68.326,93.5 58.856,71.039 "/>
	<polygon opacity="0.6" filter="url(#hightlight-1)" fill="url(#SVGID_6_)" stroke="#C8FFBB" stroke-width="0.5" points="71.026,58.87 93.487,68.338 93.487,31.662 71.026,41.129 "/>
	<polygon opacity="0.6" filter="url(#hightlight-1)" fill="url(#SVGID_7_)" stroke="#C8FFBB" stroke-width="0.5" points="28.948,41.129 6.488,31.662 6.488,68.338 28.948,58.87 "/>
	<polygon opacity="0.6" filter="url(#hightlight-1)" fill="url(#SVGID_8_)" stroke="#C8FFBB" stroke-width="0.5" points="58.856,28.96 68.326,6.5 31.648,6.5 41.117,28.96 "/>
	<polygon opacity="0.5" filter="url(#hightlight-1)" fill="url(#SVGID_9_)" points="93.5,31.662 68.339,6.5 31.661,6.5 6.501,31.662 6.501,68.338 31.661,93.5 68.339,93.5 93.5,68.338 "/>
	<polygon opacity="0.3" fill="url(#SVGID_10_)" points="71.026,41.129 58.856,28.96 41.117,28.96 28.948,41.129 28.948,58.87 41.117,71.039 58.856,71.039 71.026,58.87 "/>
	<polygon fill="none" stroke="#083300" stroke-width="2" stroke-linejoin="round" points="93.487,31.662 68.326,6.5 31.648,6.5 6.488,31.662 6.488,68.338 31.648,93.5 68.326,93.5 93.487,68.338 "/>
	<polygon opacity="0.8" fill="none" stroke="#B8FFA9" stroke-width="0.5" points="71.026,41.129 58.856,28.961 41.117,28.961 28.948,41.129 28.948,58.87 41.117,71.039 58.856,71.039 71.026,58.87 "/>
	<polygon opacity="0.2" filter="url(#hightlight-1)" fill="url(#SVGID_11_)" points="71.026,41.129 58.856,28.96 41.117,28.96 28.948,41.129 28.948,58.869 41.117,71.039 58.856,71.039 71.026,58.869 "/>
</svg>
